<?xml version="1.0" encoding="utf-8"?>
<!-- Generator: Adobe Illustrator 17.0.0, SVG Export Plug-In . SVG Version: 6.00 Build 0)  -->
<!DOCTYPE svg PUBLIC "-//W3C//DTD SVG 1.1//EN" "http://www.w3.org/Graphics/SVG/1.1/DTD/svg11.dtd">
<svg version="1.1" id="Layer_1" xmlns="http://www.w3.org/2000/svg" xmlns:xlink="http://www.w3.org/1999/xlink" x="0px" y="0px"
	 width="70.866px" height="19.686px" viewBox="14.567 4.046 70.866 19.686" enable-background="new 14.567 4.046 70.866 19.686"
	 xml:space="preserve">
<path fill="#828282" d="M81.641,13.86h-1.976c-0.357,0-0.706,0.119-1.044,0.357c-0.335,0.237-0.53,0.521-0.581,0.848l-0.165,0.984
	c-0.068,0.443,0.076,0.844,0.428,1.205c0.356,0.361,0.768,0.541,1.243,0.541h1.387L81.641,13.86z M42.926,13.86h-1.977
	c-0.357,0-0.705,0.119-1.044,0.357c-0.334,0.237-0.53,0.521-0.581,0.848l-0.165,0.984c-0.068,0.443,0.076,0.844,0.428,1.205
	c0.356,0.361,0.768,0.541,1.243,0.541h1.387L42.926,13.86z M46.693,11.745l-1.4,8.067h-6.159c-0.95,0-1.756-0.32-2.419-0.96
	c-0.662-0.639-0.993-1.418-0.993-2.336c0-0.131,0.017-0.295,0.051-0.492l0.255-1.525c0.509-1.738,1.621-2.607,3.335-2.607h3.945
	c0.084-0.492-0.047-0.942-0.395-1.352c-0.348-0.41-0.785-0.615-1.311-0.615h-4.785l0.331-1.919h6.185c0.916,0,1.709,0.32,2.38,0.96
	c0.671,0.639,1.006,1.402,1.006,2.287C46.719,11.482,46.71,11.646,46.693,11.745z M35.133,8.006l-0.331,1.919h-1.994
	c-0.971,0-1.536,0.459-1.688,1.373l-1.383,8.514h-3.385l1.553-9.223c0.119-0.754,0.505-1.373,1.158-1.857
	c0.654-0.484,1.379-0.726,2.176-0.726C31.238,8.006,35.133,8.006,35.133,8.006z M62.267,4.046h2.066h1.67h1.741l-1.353,7.846h1.913
	c0.411,0,0.785-0.135,1.124-0.406c0.339-0.27,0.547-0.602,0.615-0.996l0.399-2.484h1.693h1.693h2.037h0.911h5.273
	c0.916,0,1.71,0.32,2.38,0.96c0.67,0.639,1.005,1.402,1.005,2.287c0,0.23-0.008,0.393-0.025,0.492l-1.4,8.067h-6.16
	c-0.951,0-1.757-0.32-2.419-0.96c-0.662-0.639-0.993-1.418-0.993-2.336c0-0.131,0.017-0.295,0.051-0.492l0.254-1.525
	c0.509-1.738,1.62-2.607,3.335-2.607h3.945c0.084-0.492-0.047-0.942-0.395-1.352c-0.348-0.41-0.785-0.615-1.31-0.615h-4.036h-0.75
	l0.003-0.017l-2.009-0.044l-0.209,1.291c-0.204,1.296-1.052,2.165-2.545,2.607l1.018,6.051h-3.403l-1.001-5.952h-1.391l-1.001,5.952
	h-3.385L63.996,5.99h-2.061h-1.978h-1.433l0.356-1.943h1.076L62.267,4.046L62.267,4.046z M25.394,14.234l0,0.003h0l-1.234,7.468
	h30.199c0.424,0,0.802-0.136,1.133-0.405c0.33-0.27,0.521-0.603,0.573-0.996l0.064-0.517h0.02l1.7-9.862h-1.998h-2.459h-0.993
	l-1.663,9.862h-3.385l2.24-13.06c0.135-0.755,0.526-1.386,1.171-1.894c0.645-0.508,1.366-0.763,2.163-0.763h3.92L56.54,5.99h-1.977
	c-0.984,0-1.54,0.451-1.676,1.352l-0.114,0.664h0.62h2.791h1.998l0.004-0.024h3.398l-2.041,11.805l-0.204,1.18
	c-0.136,0.787-0.518,1.439-1.145,1.955c-0.628,0.517-1.36,0.775-2.19,0.775H23.831l-0.006,0.034h-3.523l0.006-0.034h-0.005
	l0.331-1.992h0.003l0.313-1.893h-2.899c-0.961,0-1.782-0.33-2.463-0.988c-0.681-0.658-1.022-1.452-1.022-2.38
	c0-0.203,0.017-0.404,0.052-0.608l0.943-5.446c0.14-0.826,0.524-1.489,1.153-1.987c0.63-0.498,1.376-0.746,2.25-0.746h7.76
	l-0.317,1.975h-5.797c-0.947,0-1.491,0.467-1.656,1.393l-0.878,4.915c-0.087,0.472,0.053,0.89,0.415,1.253
	c0.367,0.363,0.8,0.545,1.306,0.545h1.433l0.64-3.499L25.394,14.234z"/>
</svg>
