<?xml version="1.0" encoding="utf-8"?>
<!-- Generator: Adobe Illustrator 17.0.0, SVG Export Plug-In . SVG Version: 6.00 Build 0)  -->
<!DOCTYPE svg PUBLIC "-//W3C//DTD SVG 1.1//EN" "http://www.w3.org/Graphics/SVG/1.1/DTD/svg11.dtd">
<svg version="1.1" id="Layer_1" xmlns="http://www.w3.org/2000/svg" xmlns:xlink="http://www.w3.org/1999/xlink" x="0px" y="0px"
	 width="180.745px" height="51.958px" viewBox="0 0 180.745 51.958" enable-background="new 0 0 180.745 51.958"
	 xml:space="preserve">
<path fill="#FDFDFE" d="M170.739,25.905h-5.019c-0.907,0-1.792,0.303-2.653,0.906c-0.851,0.603-1.346,1.323-1.476,2.155l-0.42,2.499
	c-0.173,1.124,0.194,2.145,1.088,3.061c0.905,0.916,1.951,1.375,3.157,1.375h3.523L170.739,25.905z M72.405,25.905h-5.021
	c-0.906,0-1.79,0.303-2.652,0.906c-0.849,0.603-1.346,1.323-1.476,2.155l-0.419,2.499c-0.173,1.124,0.194,2.145,1.088,3.061
	c0.905,0.916,1.95,1.375,3.157,1.375h3.523L72.405,25.905z M81.974,20.533l-3.557,20.491H62.772c-2.414,0-4.461-0.813-6.143-2.438
	c-1.681-1.623-2.521-3.601-2.521-5.934c0-0.332,0.044-0.75,0.129-1.25l0.647-3.873c1.294-4.415,4.117-6.622,8.47-6.622h10.021
	c0.214-1.25-0.119-2.393-1.003-3.435c-0.884-1.042-1.994-1.561-3.329-1.561H56.889l0.841-4.875h15.71
	c2.327,0,4.342,0.813,6.044,2.438c1.704,1.624,2.554,3.56,2.554,5.809C82.039,19.866,82.016,20.282,81.974,20.533z M52.611,11.036
	l-0.841,4.875h-5.064c-2.467,0-3.901,1.165-4.288,3.487l-3.514,21.626h-8.599l3.944-23.427c0.301-1.916,1.282-3.488,2.941-4.717
	c1.66-1.229,3.502-1.844,5.528-1.844C42.718,11.036,52.611,11.036,52.611,11.036z M121.53,0.979h5.247h4.241h4.421l-3.436,19.928
	h4.859c1.044,0,1.993-0.344,2.855-1.031c0.861-0.686,1.39-1.53,1.562-2.53l1.013-6.31h4.299h4.3h5.174h2.315h13.394
	c2.327,0,4.343,0.813,6.046,2.438c1.702,1.624,2.552,3.56,2.552,5.809c0,0.583-0.021,0.999-0.063,1.25l-3.556,20.491h-15.646
	c-2.415,0-4.462-0.813-6.143-2.438c-1.681-1.623-2.521-3.601-2.521-5.934c0-0.332,0.044-0.75,0.13-1.25l0.646-3.873
	c1.293-4.415,4.116-6.622,8.47-6.622h10.021c0.214-1.25-0.119-2.393-1.004-3.435c-0.884-1.042-1.993-1.561-3.327-1.561h-10.252
	h-1.904l0.008-0.043l-5.103-0.113l-0.53,3.278c-0.517,3.291-2.673,5.499-6.464,6.623l2.586,15.369h-8.644l-2.542-15.119H131
	l-2.543,15.119h-8.599l6.064-35.109h-5.235h-5.023h-3.64l0.905-4.936h2.734h5.867V0.979z M27.874,26.856l-0.001,0.008h0.001
	L24.74,45.833h76.705c1.078,0,2.038-0.345,2.878-1.029c0.838-0.686,1.324-1.531,1.455-2.531l0.163-1.312h0.052l4.319-25.05h-5.076
	h-6.247h-2.523l-4.224,25.05h-8.598L89.333,7.79c0.344-1.917,1.336-3.521,2.974-4.811c1.638-1.291,3.469-1.938,5.495-1.938h9.956
	l-0.775,4.874h-5.022c-2.5,0-3.911,1.146-4.256,3.435l-0.29,1.687h1.574h7.088h5.076l0.011-0.061h8.631l-5.183,29.985l-0.517,2.998
	c-0.345,1.998-1.315,3.655-2.908,4.966c-1.596,1.312-3.454,1.968-5.562,1.968H23.904L23.89,50.98h-8.948l0.014-0.087h-0.013
	l0.841-5.06h0.008l0.795-4.809H9.224c-2.441,0-4.526-0.839-6.256-2.509c-1.731-1.671-2.595-3.688-2.595-6.046
	c0-0.516,0.043-1.027,0.133-1.544l2.396-13.833c0.355-2.099,1.332-3.783,2.928-5.048c1.6-1.266,3.496-1.896,5.716-1.896h19.711
	l-0.805,5.016H15.728c-2.406,0-3.787,1.185-4.207,3.537L9.29,31.184c-0.221,1.199,0.134,2.26,1.055,3.183
	c0.932,0.922,2.031,1.384,3.317,1.384h3.639l1.626-8.887L27.874,26.856z"/>
</svg>
